<svg id="Capa_1" enable-background="new 0 0 512 512" height="512" viewBox="0 0 512 512" width="512" xmlns="http://www.w3.org/2000/svg"><g><path d="m256 123.481c-98.044 0-177.699 78.956-177.699 176.599 0 37.665 11.7 73.532 33.833 103.725 2.45 3.34 7.143 4.063 10.483 1.614s4.063-7.143 1.614-10.483c-18.761-25.591-29.315-55.653-30.754-87.355h15.056c4.142 0 7.5-3.357 7.5-7.5s-3.358-7.5-7.5-7.5h-15.055c3.833-83.891 71.615-150.192 155.022-153.925v14.912c0 4.142 3.358 7.5 7.5 7.5s7.5-3.358 7.5-7.5v-14.912c81.927 3.257 151.569 70.311 155.023 153.925h-15.056c-4.142 0-7.5 3.357-7.5 7.5s3.358 7.5 7.5 7.5h15.056c-3.504 81.876-72.684 150.645-155.023 153.925v-14.912c0-4.143-3.358-7.5-7.5-7.5s-7.5 3.357-7.5 7.5v14.912c-40.65-1.82-78.604-18.403-107.563-47.173-2.938-2.92-7.687-2.905-10.606.034-2.919 2.938-2.904 7.688.035 10.606 33.562 33.344 78.18 51.706 125.635 51.706 96.104 0 177.7-80.054 177.7-176.599-.001-98.444-80.333-176.599-177.701-176.599zm139.689 16.468 13.213-21.98c2.668 1.844 5.92 3.203 9.074 3.203 4.569 0 9.031-2.321 11.543-6.499l12.152-20.217c1.846-3.071 2.38-6.674 1.504-10.147-.877-3.479-3.063-6.405-6.155-8.239l-46.801-27.77c-6.343-3.763-14.586-1.689-18.381 4.622l-12.152 20.218c-1.846 3.071-2.38 6.674-1.504 10.147 1.041 4.128 4.377 7.752 8.32 9.524l-11.657 19.388c-21.063-10.976-43.869-18.354-67.644-21.797v-34.194h7.944c10.648 0 19.312-8.664 19.312-19.312v-17.584c0-10.648-8.664-19.312-19.312-19.312h-24.145c-4.142 0-7.5 3.358-7.5 7.5s3.358 7.5 7.5 7.5h24.145c2.377 0 4.312 1.935 4.312 4.312v17.584c0 2.377-1.935 4.312-4.312 4.312h-78.29c-2.377 0-4.312-1.935-4.312-4.312v-17.584c0-2.377 1.935-4.312 4.312-4.312h24.145c4.142 0 7.5-3.358 7.5-7.5s-3.358-7.5-7.5-7.5h-24.145c-10.648 0-19.312 8.664-19.312 19.312v17.584c0 10.648 8.664 19.312 19.312 19.312h7.944v34.193c-23.775 3.443-46.581 10.821-67.644 21.797l-11.657-19.388c3.9-2.162 7.187-5.028 8.32-9.524.875-3.473.341-7.076-1.504-10.147l-12.153-20.218c-3.794-6.31-12.04-8.383-18.38-4.621l-46.801 27.77c-3.091 1.834-5.277 4.761-6.155 8.239-.875 3.473-.341 7.076 1.504 10.147l12.152 20.217c2.512 4.178 6.973 6.499 11.543 6.499 3.389 0 6.232-1.348 9.074-3.203l13.213 21.98c-46.922 40.485-73.561 98.215-73.561 160.131 0 115.178 96.161 211.92 213.25 211.92 115.513 0 213.25-95.789 213.25-211.92 0-61.819-26.664-119.617-73.561-160.131zm-11.798-77.961 44.076 26.152-10.5 17.469-44.077-26.152zm-4.491 38.48 16.597 9.852-12.108 20.143c-5.181-3.875-10.518-7.495-15.993-10.862zm-139.601-44.26h32.401v32.553c-5.364-.398-10.766-.602-16.201-.602s-10.837.204-16.201.602v-32.553zm-145.265 49.401-10.5-17.469 44.076-26.152 10.5 17.469zm21.468 4.711 16.597-9.852 11.504 19.134c-5.475 3.366-10.811 6.987-15.993 10.861zm139.998 386.68c-109.328 0-198.25-87.971-198.25-196.92 0-52.59 20.616-102.035 58.049-139.227 37.446-37.204 87.237-57.693 140.201-57.693 52.965 0 102.755 20.489 140.201 57.694 37.434 37.19 58.05 86.635 58.05 139.227-.001 106.999-90.517 196.919-198.251 196.919zm-65.926-145.678c-3.317 2.467-4.014 7.155-1.554 10.48 1.471 1.987 3.738 3.038 6.035 3.038 1.55 0 3.114-.479 4.456-1.472 1.641-1.214 40.074-30.252 46.733-85.111.352-2.207.541-4.467.541-6.771 0-23.689-19.354-42.961-43.142-42.961s-43.143 19.273-43.143 42.962 19.353 42.962 43.142 42.962c6.418 0 12.507-1.413 17.987-3.927-12.246 26.448-30.79 40.602-31.055 40.8zm13.068-51.873c-15.518 0-28.142-12.544-28.142-27.962s12.624-27.961 28.142-27.961 28.142 12.543 28.142 27.961c0 1.373-.104 2.722-.298 4.043-.012.082-.031.162-.041.245-.007.058-.016.114-.023.171-2.156 13.306-13.79 23.503-27.78 23.503zm148.858 29.224v-56.712c0-23.689-19.353-42.961-43.142-42.961s-43.142 19.272-43.142 42.961v56.712c0 23.688 19.354 42.961 43.142 42.961s43.142-19.273 43.142-42.961zm-71.284 0v-56.712c0-15.418 12.625-27.961 28.142-27.961s28.142 12.543 28.142 27.961v56.712c0 15.418-12.625 27.961-28.142 27.961s-28.142-12.543-28.142-27.961z"/></g></svg>